# xmcd CD database file
#
# Track frame offsets:
#	150
#	26088
#	54538
#	69125
#	91935
#	108809
#	133354
#	146928
#	170110
#	184426
#	209477
#
# Disc length: 3054 seconds
#
# Revision: 1
# Processed by: cddbd v1.5.1PL2 Copyright (c) Steve Scherf et al.
# Submitted via: CDex 1.51
#
DISCID=aa0bec0b
DTITLE=Policy of 3 - An Anothology - Disc Two
DYEAR=2004
DGENRE=
TTITLE0=Improv Kulture Kill
TTITLE1=Shelf
TTITLE2=Modern Man and Woman
TTITLE3=Danielle Day
TTITLE4=Empty Men
TTITLE5=New Song (Live)
TTITLE6=Runway for the Astral Plane (Live)
TTITLE7=Metro (Live)
TTITLE8=1% (Live)
TTITLE9=Space Cadet (Live)
TTITLE10=Twelve Years Down (Live)
EXTD=YEAR: 2004
EXTT0=
EXTT1=
EXTT2=
EXTT3=
EXTT4=
EXTT5=
EXTT6=
EXTT7=
EXTT8=
EXTT9=
EXTT10=
PLAYORDER=
